<svg xmlns="http://www.w3.org/2000/svg" viewBox="0 0 304 76" fill="#0A0A0A" fill-rule="evenodd" aria-label="LAEMU">
  <!-- L -->
  <path d="M 4,6 L 18,6 L 18,50 L 44,50 L 44,64 L 4,64 Z"/>
  <!-- A -->
  <path d="M 50,64 L 66,6 L 82,6 L 100,64 L 86,64 L 82,52 L 68,52 L 64,64 Z M 70,44 L 80,44 L 75,24 Z"/>
  <!-- E -->
  <path d="M 108,6 L 148,6 L 148,18 L 122,18 L 122,30 L 140,30 L 140,42 L 122,42 L 122,52 L 148,52 L 148,64 L 108,64 Z"/>
  <!-- Wave (replaces M) -->
  <path d="M 156,62 C 168,6 188,6 194,36 C 200,6 220,6 232,62"
        stroke="#0A0A0A" stroke-width="14" fill="none"
        stroke-linecap="round" stroke-linejoin="round"/>
  <!-- U -->
  <path d="M 240,6 L 254,6 L 254,46 C 254,54 260,58 268,58 C 276,58 282,54 282,46 L 282,6 L 296,6 L 296,46 C 296,60 285,68 268,68 C 251,68 240,60 240,46 Z"/>
</svg>
